<svg aria-hidden="true" style="position: absolute; width: 0; height: 0; overflow: hidden;" version="1.1" xmlns="http://www.w3.org/2000/svg" xmlns:xlink="http://www.w3.org/1999/xlink">
<defs>
<symbol id="icon-play2" viewBox="0 0 32 32">
<path d="M16 0c-8.837 0-16 7.163-16 16s7.163 16 16 16 16-7.163 16-16-7.163-16-16-16zM16 29c-7.18 0-13-5.82-13-13s5.82-13 13-13 13 5.82 13 13-5.82 13-13 13zM12 9l12 7-12 7z"></path>
</symbol>
<symbol id="icon-check-circle-o" viewBox="0 0 24 28">
<path d="M18.297 12.703l-6.594 6.594c-0.391 0.391-1.016 0.391-1.406 0l-4.594-4.594c-0.391-0.391-0.391-1.016 0-1.406l1.594-1.594c0.391-0.391 1.016-0.391 1.406 0l2.297 2.297 4.297-4.297c0.391-0.391 1.016-0.391 1.406 0l1.594 1.594c0.391 0.391 0.391 1.016 0 1.406zM20.5 14c0-4.688-3.813-8.5-8.5-8.5s-8.5 3.813-8.5 8.5 3.813 8.5 8.5 8.5 8.5-3.813 8.5-8.5zM24 14c0 6.625-5.375 12-12 12s-12-5.375-12-12 5.375-12 12-12 12 5.375 12 12z"></path>
</symbol>
<symbol id="icon-twitter-square" viewBox="0 0 24 28">
<path d="M20 9.531c-0.594 0.266-1.219 0.438-1.891 0.531 0.688-0.406 1.203-1.062 1.453-1.828-0.641 0.375-1.344 0.656-2.094 0.797-0.594-0.641-1.453-1.031-2.391-1.031-1.813 0-3.281 1.469-3.281 3.281 0 0.25 0.016 0.516 0.078 0.75-2.734-0.141-5.156-1.437-6.781-3.437-0.281 0.484-0.453 1.062-0.453 1.656 0 1.141 0.531 2.141 1.422 2.734-0.547-0.016-1.062-0.172-1.563-0.406v0.031c0 1.594 1.203 2.922 2.703 3.219-0.281 0.078-0.5 0.125-0.797 0.125-0.203 0-0.406-0.031-0.609-0.063 0.422 1.297 1.625 2.25 3.063 2.281-1.125 0.875-2.531 1.406-4.078 1.406-0.266 0-0.531-0.016-0.781-0.047 1.453 0.922 3.172 1.469 5.031 1.469 6.031 0 9.344-5 9.344-9.344 0-0.141 0-0.281-0.016-0.422 0.641-0.453 1.203-1.031 1.641-1.703zM24 6.5v15c0 2.484-2.016 4.5-4.5 4.5h-15c-2.484 0-4.5-2.016-4.5-4.5v-15c0-2.484 2.016-4.5 4.5-4.5h15c2.484 0 4.5 2.016 4.5 4.5z"></path>
</symbol>
<symbol id="icon-facebook-square" viewBox="0 0 24 28">
<path d="M19.5 2c2.484 0 4.5 2.016 4.5 4.5v15c0 2.484-2.016 4.5-4.5 4.5h-2.938v-9.297h3.109l0.469-3.625h-3.578v-2.312c0-1.047 0.281-1.75 1.797-1.75l1.906-0.016v-3.234c-0.328-0.047-1.469-0.141-2.781-0.141-2.766 0-4.672 1.687-4.672 4.781v2.672h-3.125v3.625h3.125v9.297h-8.313c-2.484 0-4.5-2.016-4.5-4.5v-15c0-2.484 2.016-4.5 4.5-4.5h15z"></path>
</symbol>
<symbol id="icon-comments" viewBox="0 0 28 28">
<path d="M22 12c0 4.422-4.922 8-11 8-0.953 0-1.875-0.094-2.75-0.25-1.297 0.922-2.766 1.594-4.344 2-0.422 0.109-0.875 0.187-1.344 0.25h-0.047c-0.234 0-0.453-0.187-0.5-0.453v0c-0.063-0.297 0.141-0.484 0.313-0.688 0.609-0.688 1.297-1.297 1.828-2.594-2.531-1.469-4.156-3.734-4.156-6.266 0-4.422 4.922-8 11-8s11 3.578 11 8zM28 16c0 2.547-1.625 4.797-4.156 6.266 0.531 1.297 1.219 1.906 1.828 2.594 0.172 0.203 0.375 0.391 0.313 0.688v0c-0.063 0.281-0.297 0.484-0.547 0.453-0.469-0.063-0.922-0.141-1.344-0.25-1.578-0.406-3.047-1.078-4.344-2-0.875 0.156-1.797 0.25-2.75 0.25-2.828 0-5.422-0.781-7.375-2.063 0.453 0.031 0.922 0.063 1.375 0.063 3.359 0 6.531-0.969 8.953-2.719 2.609-1.906 4.047-4.484 4.047-7.281 0-0.812-0.125-1.609-0.359-2.375 2.641 1.453 4.359 3.766 4.359 6.375z"></path>
</symbol>
<symbol id="icon-linkedin-square" viewBox="0 0 24 28">
<path d="M3.703 22.094h3.609v-10.844h-3.609v10.844zM7.547 7.906c-0.016-1.062-0.781-1.875-2.016-1.875s-2.047 0.812-2.047 1.875c0 1.031 0.781 1.875 2 1.875h0.016c1.266 0 2.047-0.844 2.047-1.875zM16.688 22.094h3.609v-6.219c0-3.328-1.781-4.875-4.156-4.875-1.937 0-2.797 1.078-3.266 1.828h0.031v-1.578h-3.609s0.047 1.016 0 10.844v0h3.609v-6.062c0-0.313 0.016-0.641 0.109-0.875 0.266-0.641 0.859-1.313 1.859-1.313 1.297 0 1.813 0.984 1.813 2.453v5.797zM24 6.5v15c0 2.484-2.016 4.5-4.5 4.5h-15c-2.484 0-4.5-2.016-4.5-4.5v-15c0-2.484 2.016-4.5 4.5-4.5h15c2.484 0 4.5 2.016 4.5 4.5z"></path>
</symbol>
<symbol id="icon-globe" viewBox="0 0 24 28">
<path d="M12 2c6.625 0 12 5.375 12 12s-5.375 12-12 12-12-5.375-12-12 5.375-12 12-12zM16.281 10.141c-0.125 0.094-0.203 0.266-0.359 0.297 0.078-0.016 0.156-0.297 0.203-0.359 0.094-0.109 0.219-0.172 0.344-0.234 0.266-0.109 0.531-0.141 0.812-0.187 0.266-0.063 0.594-0.063 0.797 0.172-0.047-0.047 0.328-0.375 0.375-0.391 0.141-0.078 0.375-0.047 0.469-0.187 0.031-0.047 0.031-0.344 0.031-0.344-0.266 0.031-0.359-0.219-0.375-0.438 0 0.016-0.031 0.063-0.094 0.125 0.016-0.234-0.281-0.063-0.391-0.094-0.359-0.094-0.313-0.344-0.422-0.609-0.063-0.141-0.234-0.187-0.297-0.328-0.063-0.094-0.094-0.297-0.234-0.313-0.094-0.016-0.266 0.328-0.297 0.313-0.141-0.078-0.203 0.031-0.313 0.094-0.094 0.063-0.172 0.031-0.266 0.078 0.281-0.094-0.125-0.25-0.266-0.219 0.219-0.063 0.109-0.297-0.016-0.406h0.078c-0.031-0.141-0.469-0.266-0.609-0.359s-0.891-0.25-1.047-0.156c-0.187 0.109 0.047 0.422 0.047 0.578 0.016 0.187-0.187 0.234-0.187 0.391 0 0.266 0.5 0.219 0.375 0.578-0.078 0.219-0.375 0.266-0.5 0.438-0.125 0.156 0.016 0.438 0.141 0.547 0.125 0.094-0.219 0.25-0.266 0.281-0.266 0.125-0.469-0.266-0.531-0.5-0.047-0.172-0.063-0.375-0.25-0.469-0.094-0.031-0.391-0.078-0.453 0.016-0.094-0.234-0.422-0.328-0.641-0.406-0.313-0.109-0.578-0.109-0.906-0.063 0.109-0.016-0.031-0.5-0.297-0.422 0.078-0.156 0.047-0.328 0.078-0.484 0.031-0.125 0.094-0.25 0.187-0.359 0.031-0.063 0.375-0.422 0.266-0.438 0.266 0.031 0.562 0.047 0.781-0.172 0.141-0.141 0.203-0.375 0.344-0.531 0.203-0.234 0.453 0.063 0.672 0.078 0.313 0.016 0.297-0.328 0.125-0.484 0.203 0.016 0.031-0.359-0.078-0.406-0.141-0.047-0.672 0.094-0.391 0.203-0.063-0.031-0.438 0.75-0.656 0.359-0.063-0.078-0.094-0.406-0.234-0.422-0.125 0-0.203 0.141-0.25 0.234 0.078-0.203-0.438-0.344-0.547-0.359 0.234-0.156 0.047-0.328-0.125-0.422-0.125-0.078-0.516-0.141-0.625-0.016-0.297 0.359 0.313 0.406 0.469 0.5 0.047 0.031 0.234 0.141 0.125 0.219-0.094 0.047-0.375 0.125-0.406 0.187-0.094 0.141 0.109 0.297-0.031 0.438-0.141-0.141-0.141-0.375-0.25-0.531 0.141 0.172-0.562 0.078-0.547 0.078-0.234 0-0.609 0.156-0.781-0.078-0.031-0.063-0.031-0.422 0.063-0.344-0.141-0.109-0.234-0.219-0.328-0.281-0.516 0.172-1 0.391-1.469 0.641 0.063 0.016 0.109 0.016 0.187-0.016 0.125-0.047 0.234-0.125 0.359-0.187 0.156-0.063 0.484-0.25 0.656-0.109 0.016-0.031 0.063-0.063 0.078-0.078 0.109 0.125 0.219 0.25 0.313 0.391-0.125-0.063-0.328-0.031-0.469-0.016-0.109 0.031-0.297 0.063-0.344 0.187 0.047 0.078 0.109 0.203 0.078 0.281-0.203-0.141-0.359-0.375-0.641-0.406-0.125 0-0.25 0-0.344 0.016-1.5 0.828-2.766 2.031-3.672 3.469 0.063 0.063 0.125 0.109 0.187 0.125 0.156 0.047 0 0.5 0.297 0.266 0.094 0.078 0.109 0.187 0.047 0.297 0.016-0.016 0.641 0.391 0.688 0.422 0.109 0.094 0.281 0.203 0.328 0.328 0.031 0.109-0.063 0.234-0.156 0.281-0.016-0.031-0.25-0.266-0.281-0.203-0.047 0.078 0 0.5 0.172 0.484-0.25 0.016-0.141 0.984-0.203 1.172 0 0.016 0.031 0.016 0.031 0.016-0.047 0.187 0.109 0.922 0.422 0.844-0.203 0.047 0.359 0.766 0.438 0.812 0.203 0.141 0.438 0.234 0.578 0.438 0.156 0.219 0.156 0.547 0.375 0.719-0.063 0.187 0.328 0.406 0.313 0.672-0.031 0.016-0.047 0.016-0.078 0.031 0.078 0.219 0.375 0.219 0.484 0.422 0.063 0.125 0 0.422 0.203 0.359 0.031-0.344-0.203-0.688-0.375-0.969-0.094-0.156-0.187-0.297-0.266-0.453-0.078-0.141-0.094-0.313-0.156-0.469 0.063 0.016 0.406 0.141 0.375 0.187-0.125 0.313 0.5 0.859 0.672 1.062 0.047 0.047 0.406 0.516 0.219 0.516 0.203 0 0.484 0.313 0.578 0.469 0.141 0.234 0.109 0.531 0.203 0.781 0.094 0.313 0.531 0.453 0.781 0.594 0.219 0.109 0.406 0.266 0.625 0.344 0.328 0.125 0.406 0.016 0.688-0.031 0.406-0.063 0.453 0.391 0.781 0.562 0.203 0.109 0.641 0.266 0.859 0.172-0.094 0.031 0.328 0.672 0.359 0.719 0.141 0.187 0.406 0.281 0.562 0.469 0.047-0.031 0.094-0.078 0.109-0.141-0.063 0.172 0.234 0.5 0.391 0.469 0.172-0.031 0.219-0.375 0.219-0.5-0.313 0.156-0.594 0.031-0.766-0.281-0.031-0.078-0.281-0.516-0.063-0.516 0.297 0 0.094-0.234 0.063-0.453s-0.25-0.359-0.359-0.547c-0.094 0.187-0.406 0.141-0.5-0.016 0 0.047-0.047 0.125-0.047 0.187-0.078 0-0.156 0.016-0.234-0.016 0.031-0.187 0.047-0.422 0.094-0.625 0.078-0.281 0.594-0.828-0.078-0.797-0.234 0.016-0.328 0.109-0.406 0.313-0.078 0.187-0.047 0.359-0.266 0.453-0.141 0.063-0.609 0.031-0.75-0.047-0.297-0.172-0.5-0.719-0.5-1.031-0.016-0.422 0.203-0.797 0-1.188 0.094-0.078 0.187-0.234 0.297-0.313 0.094-0.063 0.203 0.047 0.25-0.141-0.047-0.031-0.109-0.094-0.125-0.094 0.234 0.109 0.672-0.156 0.875 0 0.125 0.094 0.266 0.125 0.344-0.031 0.016-0.047-0.109-0.234-0.047-0.359 0.047 0.266 0.219 0.313 0.453 0.141 0.094 0.094 0.344 0.063 0.516 0.156 0.172 0.109 0.203 0.281 0.406 0.047 0.125 0.187 0.141 0.187 0.187 0.375 0.047 0.172 0.141 0.609 0.297 0.688 0.328 0.203 0.25-0.344 0.219-0.531-0.016-0.016-0.016-0.531-0.031-0.531-0.5-0.109-0.313-0.5-0.031-0.766 0.047-0.031 0.406-0.156 0.562-0.281 0.141-0.125 0.313-0.344 0.234-0.547 0.078 0 0.141-0.063 0.172-0.141-0.047-0.016-0.234-0.172-0.266-0.156 0.109-0.063 0.094-0.156 0.031-0.25 0.156-0.094 0.078-0.266 0.234-0.328 0.172 0.234 0.516-0.031 0.344-0.219 0.156-0.219 0.516-0.109 0.609-0.313 0.234 0.063 0.063-0.234 0.187-0.406 0.109-0.141 0.297-0.141 0.438-0.219 0 0.016 0.391-0.219 0.266-0.234 0.266 0.031 0.797-0.25 0.391-0.484 0.063-0.141-0.141-0.203-0.281-0.234 0.109-0.031 0.25 0.031 0.344-0.031 0.203-0.141 0.063-0.203-0.109-0.25-0.219-0.063-0.5 0.078-0.672 0.187zM13.734 23.844c2.141-0.375 4.047-1.437 5.484-2.953-0.094-0.094-0.266-0.063-0.391-0.125-0.125-0.047-0.219-0.094-0.375-0.125 0.031-0.313-0.313-0.422-0.531-0.578-0.203-0.156-0.328-0.328-0.625-0.266-0.031 0.016-0.344 0.125-0.281 0.187-0.203-0.172-0.297-0.266-0.562-0.344-0.25-0.078-0.422-0.391-0.672-0.109-0.125 0.125-0.063 0.313-0.125 0.438-0.203-0.172 0.187-0.375 0.031-0.562-0.187-0.219-0.516 0.141-0.672 0.234-0.094 0.078-0.203 0.109-0.266 0.203-0.078 0.109-0.109 0.25-0.172 0.359-0.047-0.125-0.313-0.094-0.328-0.187 0.063 0.375 0.063 0.766 0.141 1.141 0.047 0.219 0 0.578-0.187 0.75s-0.422 0.359-0.453 0.625c-0.031 0.187 0.016 0.359 0.187 0.406 0.016 0.234-0.25 0.406-0.234 0.656 0 0.016 0.016 0.172 0.031 0.25z"></path>
</symbol>
<symbol id="icon-briefcase" viewBox="0 0 28 28">
<path d="M10 4h8v-2h-8v2zM28 14v7.5c0 1.375-1.125 2.5-2.5 2.5h-23c-1.375 0-2.5-1.125-2.5-2.5v-7.5h10.5v2.5c0 0.547 0.453 1 1 1h5c0.547 0 1-0.453 1-1v-2.5h10.5zM16 14v2h-4v-2h4zM28 6.5v6h-28v-6c0-1.375 1.125-2.5 2.5-2.5h5.5v-2.5c0-0.828 0.672-1.5 1.5-1.5h9c0.828 0 1.5 0.672 1.5 1.5v2.5h5.5c1.375 0 2.5 1.125 2.5 2.5z"></path>
</symbol>
<symbol id="icon-bank" viewBox="0 0 30 28">
<path d="M15 0l15 6v2h-2c0 0.547-0.484 1-1.078 1h-23.844c-0.594 0-1.078-0.453-1.078-1h-2v-2zM4 10h4v12h2v-12h4v12h2v-12h4v12h2v-12h4v12h0.922c0.594 0 1.078 0.453 1.078 1v1h-26v-1c0-0.547 0.484-1 1.078-1h0.922v-12zM28.922 25c0.594 0 1.078 0.453 1.078 1v2h-30v-2c0-0.547 0.484-1 1.078-1h27.844z"></path>
</symbol>
<symbol id="icon-pie-chart" viewBox="0 0 27 28">
<path d="M12 13.906l8.531 8.531c-2.172 2.203-5.203 3.563-8.531 3.563-6.625 0-12-5.375-12-12s5.375-12 12-12v11.906zM14.922 14h12.078c0 3.328-1.359 6.359-3.563 8.531zM26 12h-12v-12c6.625 0 12 5.375 12 12z"></path>
</symbol>
<symbol id="icon-line-chart" viewBox="0 0 32 28">
<path d="M32 24v2h-32v-24h2v22h30zM30 4.5v6.797c0 0.438-0.531 0.672-0.859 0.344l-1.891-1.891-9.891 9.891c-0.203 0.203-0.516 0.203-0.719 0l-3.641-3.641-6.5 6.5-3-3 9.141-9.141c0.203-0.203 0.516-0.203 0.719 0l3.641 3.641 7.25-7.25-1.891-1.891c-0.328-0.328-0.094-0.859 0.344-0.859h6.797c0.281 0 0.5 0.219 0.5 0.5z"></path>
</symbol>
<symbol id="icon-whatsapp" viewBox="0 0 24 28">
<path d="M15.391 15.219c0.266 0 2.812 1.328 2.922 1.516 0.031 0.078 0.031 0.172 0.031 0.234 0 0.391-0.125 0.828-0.266 1.188-0.359 0.875-1.813 1.437-2.703 1.437-0.75 0-2.297-0.656-2.969-0.969-2.234-1.016-3.625-2.75-4.969-4.734-0.594-0.875-1.125-1.953-1.109-3.031v-0.125c0.031-1.031 0.406-1.766 1.156-2.469 0.234-0.219 0.484-0.344 0.812-0.344 0.187 0 0.375 0.047 0.578 0.047 0.422 0 0.5 0.125 0.656 0.531 0.109 0.266 0.906 2.391 0.906 2.547 0 0.594-1.078 1.266-1.078 1.625 0 0.078 0.031 0.156 0.078 0.234 0.344 0.734 1 1.578 1.594 2.141 0.719 0.688 1.484 1.141 2.359 1.578 0.109 0.063 0.219 0.109 0.344 0.109 0.469 0 1.25-1.516 1.656-1.516zM12.219 23.5c5.406 0 9.812-4.406 9.812-9.812s-4.406-9.812-9.812-9.812-9.812 4.406-9.812 9.812c0 2.063 0.656 4.078 1.875 5.75l-1.234 3.641 3.781-1.203c1.594 1.047 3.484 1.625 5.391 1.625zM12.219 1.906c6.5 0 11.781 5.281 11.781 11.781s-5.281 11.781-11.781 11.781c-1.984 0-3.953-0.5-5.703-1.469l-6.516 2.094 2.125-6.328c-1.109-1.828-1.687-3.938-1.687-6.078 0-6.5 5.281-11.781 11.781-11.781z"></path>
</symbol>
<symbol id="icon-error_outline" viewBox="0 0 24 24">
<path d="M12 20.016q3.281 0 5.648-2.367t2.367-5.648-2.367-5.648-5.648-2.367-5.648 2.367-2.367 5.648 2.367 5.648 5.648 2.367zM12 2.016q4.125 0 7.055 2.93t2.93 7.055-2.93 7.055-7.055 2.93-7.055-2.93-2.93-7.055 2.93-7.055 7.055-2.93zM11.016 6.984h1.969v6h-1.969v-6zM11.016 15h1.969v2.016h-1.969v-2.016z"></path>
</symbol>
<symbol id="icon-loop" viewBox="0 0 24 24">
<path d="M12 18v-3l3.984 3.984-3.984 4.031v-3q-3.281 0-5.648-2.367t-2.367-5.648q0-2.344 1.266-4.266l1.453 1.453q-0.703 1.266-0.703 2.813 0 2.484 1.758 4.242t4.242 1.758zM12 3.984q3.281 0 5.648 2.367t2.367 5.648q0 2.344-1.266 4.266l-1.453-1.453q0.703-1.266 0.703-2.813 0-2.484-1.758-4.242t-4.242-1.758v3l-3.984-3.984 3.984-4.031v3z"></path>
</symbol>
<symbol id="icon-call" viewBox="0 0 24 24">
<path d="M20.016 15.375q0.422 0 0.703 0.281t0.281 0.703v3.469q0 1.172-0.984 1.172-6.984 0-12-5.016t-5.016-12q0-0.984 1.172-0.984h3.469q0.422 0 0.703 0.281t0.281 0.703q0 1.828 0.563 3.516 0.188 0.609-0.234 1.031l-1.922 1.688q2.156 4.5 6.891 6.797l1.547-1.969q0.281-0.281 0.703-0.281 0.234 0 0.328 0.047 1.688 0.563 3.516 0.563z"></path>
</symbol>
<symbol id="icon-location_on" viewBox="0 0 24 24">
<path d="M12 11.484q1.031 0 1.758-0.727t0.727-1.758-0.727-1.758-1.758-0.727-1.758 0.727-0.727 1.758 0.727 1.758 1.758 0.727zM12 2.016q2.906 0 4.945 2.039t2.039 4.945q0 1.453-0.727 3.328t-1.758 3.516-2.039 3.070-1.711 2.273l-0.75 0.797q-0.281-0.328-0.75-0.867t-1.688-2.156-2.133-3.141-1.664-3.445-0.75-3.375q0-2.906 2.039-4.945t4.945-2.039z"></path>
</symbol>
<symbol id="icon-phonelink_ring" viewBox="0 0 24 24">
<path d="M14.016 20.016v-16.031h-10.031v16.031h10.031zM14.016 0.984q0.797 0 1.383 0.609t0.586 1.406v18q0 0.797-0.586 1.406t-1.383 0.609h-10.031q-0.797 0-1.383-0.609t-0.586-1.406v-18q0-0.797 0.586-1.406t1.383-0.609h10.031zM18 9.797q0.938 0.984 0.938 2.203t-0.938 2.109l-0.984-1.031q0.844-1.172 0-2.297zM20.109 7.688q1.875 1.781 1.875 4.289t-1.875 4.242l-1.031-1.031q1.359-1.453 1.359-3.305t-1.359-3.164z"></path>
</symbol>
<symbol id="icon-mail_outline" viewBox="0 0 24 24">
<path d="M12 11.016l8.016-5.016h-16.031zM20.016 18v-9.984l-8.016 4.969-8.016-4.969v9.984h16.031zM20.016 3.984q0.797 0 1.383 0.609t0.586 1.406v12q0 0.797-0.586 1.406t-1.383 0.609h-16.031q-0.797 0-1.383-0.609t-0.586-1.406v-12q0-0.797 0.586-1.406t1.383-0.609h16.031z"></path>
</symbol>
<symbol id="icon-alternate_email" viewBox="0 0 24 24">
<path d="M12 15q1.219 0 2.109-0.891t0.891-2.109-0.891-2.109-2.109-0.891-2.109 0.891-0.891 2.109 0.891 2.109 2.109 0.891zM12 2.016q4.125 0 7.055 2.93t2.93 7.055v1.453q0 1.5-1.008 2.531t-2.461 1.031q-1.828 0-2.953-1.5-1.5 1.5-3.563 1.5t-3.539-1.477-1.477-3.539 1.477-3.539 3.539-1.477 3.539 1.477 1.477 3.539v1.453q0 0.609 0.445 1.078t1.055 0.469 1.055-0.469 0.445-1.078v-1.453q0-3.281-2.367-5.648t-5.648-2.367-5.648 2.367-2.367 5.648 2.367 5.648 5.648 2.367h5.016v1.969h-5.016q-4.125 0-7.055-2.93t-2.93-7.055 2.93-7.055 7.055-2.93z"></path>
</symbol>
<symbol id="icon-access_time" viewBox="0 0 24 24">
<path d="M12.516 6.984v5.25l4.5 2.672-0.75 1.266-5.25-3.188v-6h1.5zM12 20.016q3.281 0 5.648-2.367t2.367-5.648-2.367-5.648-5.648-2.367-5.648 2.367-2.367 5.648 2.367 5.648 5.648 2.367zM12 2.016q4.125 0 7.055 2.93t2.93 7.055-2.93 7.055-7.055 2.93-7.055-2.93-2.93-7.055 2.93-7.055 7.055-2.93z"></path>
</symbol>
<symbol id="icon-brightness_low" viewBox="0 0 24 24">
<path d="M12 18q2.484 0 4.242-1.758t1.758-4.242-1.758-4.242-4.242-1.758-4.242 1.758-1.758 4.242 1.758 4.242 4.242 1.758zM20.016 15.328v4.688h-4.688l-3.328 3.281-3.328-3.281h-4.688v-4.688l-3.281-3.328 3.281-3.328v-4.688h4.688l3.328-3.281 3.328 3.281h4.688v4.688l3.281 3.328z"></path>
</symbol>
<symbol id="icon-phone_android" viewBox="0 0 24 24">
<path d="M17.25 18v-14.016h-10.5v14.016h10.5zM14.016 21v-0.984h-4.031v0.984h4.031zM15.984 0.984q1.219 0 2.109 0.891t0.891 2.109v16.031q0 1.219-0.891 2.109t-2.109 0.891h-7.969q-1.219 0-2.109-0.891t-0.891-2.109v-16.031q0-1.219 0.891-2.109t2.109-0.891h7.969z"></path>
</symbol>
<symbol id="icon-phone_iphone" viewBox="0 0 24 24">
<path d="M15.984 18v-14.016h-9v14.016h9zM11.484 21.984q0.609 0 1.055-0.445t0.445-1.055-0.445-1.055-1.055-0.445-1.055 0.445-0.445 1.055 0.445 1.055 1.055 0.445zM15.516 0.984q1.031 0 1.758 0.75t0.727 1.781v16.969q0 1.031-0.727 1.781t-1.758 0.75h-8.016q-1.031 0-1.758-0.75t-0.727-1.781v-16.969q0-1.031 0.727-1.781t1.758-0.75h8.016z"></path>
</symbol>
<symbol id="icon-timer" viewBox="0 0 24 24">
<path d="M12 20.016q2.906 0 4.945-2.063t2.039-4.969-2.039-4.945-4.945-2.039-4.945 2.039-2.039 4.945 2.039 4.969 4.945 2.063zM19.031 7.406q0.797 1.031 1.383 2.648t0.586 2.93q0 3.703-2.625 6.352t-6.375 2.648-6.375-2.648-2.625-6.352 2.625-6.352 6.375-2.648q1.266 0 2.93 0.609t2.695 1.406l1.406-1.453q0.75 0.609 1.406 1.406zM11.016 14.016v-6h1.969v6h-1.969zM15 0.984v2.016h-6v-2.016h6z"></path>
</symbol>
<symbol id="icon-pin_drop" viewBox="0 0 24 24">
<path d="M5.016 20.016h13.969v1.969h-13.969v-1.969zM9.984 8.016q0 0.844 0.586 1.406t1.43 0.563 1.43-0.563 0.586-1.406q0-0.797-0.609-1.406t-1.406-0.609-1.406 0.609-0.609 1.406zM18 8.016q0 2.016-1.5 4.758t-3 4.477l-1.5 1.734q-0.656-0.703-1.664-1.922t-2.672-4.125-1.664-4.922q0-2.484 1.758-4.242t4.242-1.758 4.242 1.758 1.758 4.242z"></path>
</symbol>
<symbol id="icon-streetview" viewBox="0 0 24 24">
<path d="M11.484 6q0 1.125 0.563 2.461t1.359 2.133l-9.797 9.797q-0.609-0.609-0.609-1.406v-13.969q0-0.797 0.609-1.406t1.406-0.609h7.219q-0.75 1.406-0.75 3zM12.984 6q0-2.063 1.477-3.539t3.539-1.477 3.539 1.477 1.477 3.539-1.477 3.539-3.539 1.477-3.539-1.477-1.477-3.539zM12.563 14.344q2.438-1.828 5.438-1.828 1.547 0 3 0.516v5.953q0 0.797-0.609 1.406t-1.406 0.609h-6.984v-5.484q0-0.703 0.563-1.172z"></path>
</symbol>
<symbol id="icon-arrow_back" viewBox="0 0 24 24">
<path d="M20.016 11.016v1.969h-12.188l5.578 5.625-1.406 1.406-8.016-8.016 8.016-8.016 1.406 1.406-5.578 5.625h12.188z"></path>
</symbol>
<symbol id="icon-arrow_forward" viewBox="0 0 24 24">
<path d="M12 3.984l8.016 8.016-8.016 8.016-1.406-1.406 5.578-5.625h-12.188v-1.969h12.188l-5.578-5.625z"></path>
</symbol>
<symbol id="icon-check" viewBox="0 0 24 24">
<path d="M9 16.172l10.594-10.594 1.406 1.406-12 12-5.578-5.578 1.406-1.406z"></path>
</symbol>
<symbol id="icon-group" viewBox="0 0 24 24">
<path d="M15.984 12.984q1.313 0 2.859 0.375t2.859 1.219 1.313 1.922v2.484h-6v-2.484q0-2.063-1.969-3.469 0.328-0.047 0.938-0.047zM8.016 12.984q1.313 0 2.859 0.375t2.836 1.219 1.289 1.922v2.484h-14.016v-2.484q0-1.078 1.313-1.922t2.859-1.219 2.859-0.375zM8.016 11.016q-1.219 0-2.109-0.891t-0.891-2.109 0.891-2.109 2.109-0.891 2.086 0.891 0.867 2.109-0.867 2.109-2.086 0.891zM15.984 11.016q-1.219 0-2.109-0.891t-0.891-2.109 0.891-2.109 2.109-0.891 2.109 0.891 0.891 2.109-0.891 2.109-2.109 0.891z"></path>
</symbol>
<symbol id="icon-school" viewBox="0 0 24 24">
<path d="M12 3l11.016 6v8.016h-2.016v-6.938l-9 4.922-11.016-6zM5.016 13.172l6.984 3.844 6.984-3.844v4.031l-6.984 3.797-6.984-3.797v-4.031z"></path>
</symbol>
<symbol id="icon-account_balance" viewBox="0 0 24 24">
<path d="M11.484 0.984l9.516 5.016v2.016h-18.984v-2.016zM15.984 9.984h3v7.031h-3v-7.031zM2.016 21.984v-3h18.984v3h-18.984zM9.984 9.984h3v7.031h-3v-7.031zM3.984 9.984h3v7.031h-3v-7.031z"></path>
</symbol>
<symbol id="icon-search" viewBox="0 0 24 24">
<path d="M9.516 14.016q1.875 0 3.188-1.313t1.313-3.188-1.313-3.188-3.188-1.313-3.188 1.313-1.313 3.188 1.313 3.188 3.188 1.313zM15.516 14.016l4.969 4.969-1.5 1.5-4.969-4.969v-0.797l-0.281-0.281q-1.781 1.547-4.219 1.547-2.719 0-4.617-1.875t-1.898-4.594 1.898-4.617 4.617-1.898 4.594 1.898 1.875 4.617q0 0.984-0.469 2.227t-1.078 1.992l0.281 0.281h0.797z"></path>
</symbol>
<symbol id="icon-settings" viewBox="0 0 24 24">
<path d="M12 15.516q1.453 0 2.484-1.031t1.031-2.484-1.031-2.484-2.484-1.031-2.484 1.031-1.031 2.484 1.031 2.484 2.484 1.031zM19.453 12.984l2.109 1.641q0.328 0.234 0.094 0.656l-2.016 3.469q-0.188 0.328-0.609 0.188l-2.484-0.984q-0.984 0.703-1.688 0.984l-0.375 2.625q-0.094 0.422-0.469 0.422h-4.031q-0.375 0-0.469-0.422l-0.375-2.625q-0.891-0.375-1.688-0.984l-2.484 0.984q-0.422 0.141-0.609-0.188l-2.016-3.469q-0.234-0.422 0.094-0.656l2.109-1.641q-0.047-0.328-0.047-0.984t0.047-0.984l-2.109-1.641q-0.328-0.234-0.094-0.656l2.016-3.469q0.188-0.328 0.609-0.188l2.484 0.984q0.984-0.703 1.688-0.984l0.375-2.625q0.094-0.422 0.469-0.422h4.031q0.375 0 0.469 0.422l0.375 2.625q0.891 0.375 1.688 0.984l2.484-0.984q0.422-0.141 0.609 0.188l2.016 3.469q0.234 0.422-0.094 0.656l-2.109 1.641q0.047 0.328 0.047 0.984t-0.047 0.984z"></path>
</symbol>
<symbol id="icon-fingerprint" viewBox="0 0 24 24">
<path d="M14.906 21.984h-0.141q-2.156-0.563-3.703-2.109-0.891-0.891-1.523-2.414t-0.633-2.789q0-1.219 0.891-2.086t2.156-0.867 2.18 0.867 0.914 2.086q0 0.797 0.586 1.359t1.477 0.563 1.5-0.563 0.609-1.359q0-2.813-2.133-4.828t-5.133-2.016q-2.156 0-3.938 1.102t-2.672 2.93q-0.563 1.172-0.563 2.813 0 1.875 0.656 3.609 0.141 0.469-0.328 0.609t-0.609-0.281q-0.75-1.922-0.75-3.938 0-1.828 0.703-3.234 0.984-2.109 3.023-3.375t4.477-1.266q3.422 0 5.836 2.32t2.414 5.555q0 1.219-0.914 2.063t-2.18 0.844-2.156-0.844-0.891-2.063q0-0.797-0.609-1.383t-1.5-0.586-1.477 0.586-0.586 1.383q0 2.625 1.875 4.5 1.313 1.313 3.281 1.828 0.422 0.047 0.328 0.609-0.094 0.375-0.469 0.375zM12.422 14.672q0 1.734 1.289 3t3.211 1.266q0.094 0 0.422-0.047t0.539-0.047 0.422 0.070 0.258 0.305q0.094 0.516-0.422 0.609-0.563 0.094-1.219 0.094-1.875 0-3.094-0.891-2.391-1.641-2.391-4.359 0-0.516 0.516-0.516 0.469 0 0.469 0.516zM9.75 21.797q-0.188 0-0.328-0.141-1.266-1.266-2.016-2.672-1.078-1.875-1.078-4.313 0-2.203 1.664-3.797t4.008-1.594 4.008 1.594 1.664 3.797q0 0.469-0.516 0.469t-0.516-0.469q0-1.828-1.359-3.117t-3.281-1.289-3.281 1.289-1.359 3.117q0 2.25 0.891 3.844 0.609 1.078 1.875 2.438 0.375 0.328 0 0.703-0.141 0.141-0.375 0.141zM3.516 9.703q-0.516 0-0.516-0.469 0-0.094 0.094-0.281 1.5-2.156 3.75-3.281 2.344-1.219 5.156-1.219t5.156 1.219q2.297 1.125 3.75 3.234 0.094 0.188 0.094 0.281 0 0.328-0.375 0.469t-0.563-0.188q-1.406-1.922-3.375-2.906-2.156-1.078-4.688-1.102t-4.688 1.102q-2.109 1.078-3.422 2.953-0.141 0.188-0.375 0.188zM17.813 4.453q-0.188 0-0.234-0.047-2.766-1.406-5.578-1.406-3.047 0-5.578 1.406-0.234 0.141-0.469 0t-0.234-0.422q0-0.328 0.234-0.469 2.719-1.5 6.047-1.5 3.047 0 6.047 1.5 0.422 0.234 0.188 0.656-0.188 0.281-0.422 0.281z"></path>
</symbol>
<symbol id="icon-social-twitter" viewBox="0 0 24 24">
<path d="M18.89 7.012c0.808-0.496 1.343-1.173 1.605-2.034-0.786 0.417-1.569 0.703-2.351 0.861-0.703-0.756-1.593-1.14-2.66-1.14-1.043 0-1.924 0.366-2.643 1.078-0.715 0.717-1.076 1.588-1.076 2.605 0 0.309 0.039 0.585 0.117 0.819-3.076-0.105-5.622-1.381-7.628-3.837-0.34 0.601-0.51 1.213-0.51 1.846 0 1.301 0.549 2.332 1.645 3.089-0.625-0.053-1.176-0.211-1.645-0.47 0 0.929 0.273 1.705 0.82 2.388 0.549 0.676 1.254 1.107 2.115 1.291-0.312 0.080-0.641 0.118-0.979 0.118-0.312 0-0.533-0.026-0.664-0.083 0.23 0.757 0.664 1.371 1.291 1.841 0.625 0.472 1.344 0.721 2.152 0.743-1.332 1.045-2.855 1.562-4.578 1.562-0.422 0-0.721-0.006-0.902-0.038 1.697 1.102 3.586 1.649 5.676 1.649 2.139 0 4.029-0.542 5.674-1.626 1.645-1.078 2.859-2.408 3.639-3.974 0.784-1.564 1.172-3.192 1.172-4.892v-0.468c0.758-0.57 1.371-1.212 1.84-1.921-0.68 0.293-1.383 0.492-2.11 0.593z"></path>
</symbol>
<symbol id="icon-social-facebook" viewBox="0 0 24 24">
<path d="M13 10h3v3h-3v7h-3v-7h-3v-3h3v-1.255c0-1.189 0.374-2.691 1.118-3.512 0.744-0.823 1.673-1.233 2.786-1.233h2.096v3h-2.1c-0.498 0-0.9 0.402-0.9 0.899v2.101z"></path>
</symbol>
<symbol id="icon-social-skype" viewBox="0 0 24 24">
<path d="M20.668 13.312c0.059-0.427 0.089-0.846 0.089-1.251 0-2.437-0.846-4.544-2.513-6.263-1.685-1.735-3.755-2.615-6.152-2.615-0.279 0-0.546 0.013-0.801 0.038-0.756-0.35-1.568-0.526-2.426-0.526-1.609 0-3.053 0.61-4.174 1.765-1.105 1.135-1.691 2.585-1.691 4.192 0 0.832 0.156 1.619 0.466 2.348-0.047 0.357-0.070 0.713-0.070 1.062 0 2.438 0.853 4.547 2.532 6.267 1.693 1.732 3.768 2.61 6.164 2.61 0.254 0 0.547-0.020 0.896-0.060 0.69 0.283 1.409 0.426 2.146 0.426 1.588 0 3.025-0.614 4.157-1.777 1.117-1.143 1.709-2.6 1.709-4.211 0-0.677-0.111-1.349-0.332-2.005zM15.5 15.348c-0.284 0.427-0.729 0.781-1.339 1.065-0.609 0.243-1.31 0.365-2.1 0.365-0.954 0-1.756-0.173-2.404-0.519-0.467-0.262-0.833-0.598-1.096-1.003-0.284-0.447-0.428-0.862-0.428-1.248 0-0.243 0.092-0.457 0.274-0.639 0.184-0.184 0.416-0.274 0.7-0.274 0.203 0 0.406 0.072 0.609 0.213 0.162 0.162 0.283 0.366 0.364 0.609 0.021 0.020 0.153 0.253 0.396 0.7 0.102 0.141 0.284 0.283 0.547 0.425 0.245 0.122 0.568 0.183 0.975 0.183 0.548 0 1.005-0.121 1.37-0.364 0.324-0.224 0.486-0.507 0.486-0.853 0-0.284-0.092-0.498-0.274-0.639-0.183-0.184-0.415-0.324-0.699-0.427-0.081-0.021-0.188-0.047-0.319-0.075-0.133-0.031-0.285-0.071-0.457-0.123-0.172-0.051-0.32-0.086-0.441-0.106-0.689-0.141-1.277-0.324-1.766-0.548-0.426-0.162-0.811-0.445-1.156-0.851-0.283-0.386-0.426-0.843-0.426-1.37 0-0.528 0.152-0.994 0.457-1.4 0.304-0.406 0.74-0.711 1.308-0.913 0.569-0.224 1.219-0.334 1.949-0.334 0.548 0 1.066 0.070 1.552 0.213 0.468 0.162 0.843 0.355 1.127 0.579 0.263 0.243 0.477 0.486 0.639 0.729 0.142 0.324 0.214 0.589 0.214 0.791 0 0.265-0.092 0.488-0.275 0.669-0.201 0.204-0.436 0.306-0.699 0.306-0.223 0-0.416-0.061-0.578-0.184-0.102-0.101-0.233-0.283-0.396-0.547-0.121-0.284-0.314-0.537-0.577-0.762-0.243-0.182-0.619-0.273-1.127-0.273s-0.892 0.102-1.156 0.305c-0.284 0.184-0.426 0.396-0.426 0.639 0 0.162 0.050 0.296 0.152 0.396 0.102 0.143 0.232 0.255 0.396 0.336 0.102 0.060 0.274 0.132 0.518 0.212 0.061 0.021 0.197 0.057 0.41 0.106 0.213 0.053 0.391 0.087 0.533 0.107 0.283 0.061 0.771 0.192 1.461 0.396 0.406 0.141 0.791 0.323 1.156 0.548 0.346 0.242 0.599 0.517 0.762 0.82 0.162 0.365 0.242 0.771 0.242 1.217-0.002 0.548-0.154 1.056-0.458 1.523z"></path>
</symbol>
<symbol id="icon-social-linkedin" viewBox="0 0 24 24">
<path d="M8 19h-3v-10h3v10zM19 19h-3v-5.342c0-1.392-0.496-2.085-1.479-2.085-0.779 0-1.273 0.388-1.521 1.165 0 1.262 0 6.262 0 6.262h-3c0 0 0.040-9 0-10h2.368l0.183 2h0.062c0.615-1 1.598-1.678 2.946-1.678 1.025 0 1.854 0.285 2.487 1.001 0.637 0.717 0.954 1.679 0.954 3.030v5.647z"></path>
<path d="M8.050 6.5c0 0.828-0.694 1.5-1.55 1.5s-1.55-0.672-1.55-1.5c0-0.828 0.694-1.5 1.55-1.5s1.55 0.672 1.55 1.5z"></path>
</symbol>
</defs>
</svg>
